<svg xmlns="http://www.w3.org/2000/svg" xmlns:xlink="http://www.w3.org/1999/xlink"><symbol viewBox="0 0 48 48" id="icon_cart" xmlns="http://www.w3.org/2000/svg"><path fill="none" d="M0 0h48v48H0z"/><path d="M34.42 18L25.66 4.89c-.38-.58-1.02-.85-1.66-.85-.64 0-1.28.28-1.66.85L13.58 18H4a2.006 2.006 0 0 0-1.93 2.54l5.07 18.54A4.01 4.01 0 0 0 11 42h26c1.84 0 3.39-1.24 3.85-2.93l5.07-18.54c.05-.16.08-.34.08-.53 0-1.1-.9-2-2-2h-9.58zM18 18l6-8.8 6 8.8H18zm6 16c-2.21 0-4-1.79-4-4s1.79-4 4-4 4 1.79 4 4-1.79 4-4 4z"/></symbol><symbol viewBox="0 0 16 16" id="icon_chart" xmlns="http://www.w3.org/2000/svg"><path fill-rule="evenodd" d="M12 0h4v16h-4zM6 6h4v10H6zm-6 4h4v6H0zm0 0"/></symbol><symbol viewBox="0 0 44 55" id="icon_htmlacademy"><path d="M21.8 54.62L0 41.8V2.24L21.8 0l21.7 2.24V41.8zM2.8 40.2l19 11.18L40.7 40.2V4.76L21.8 2.8l-19 2z"/><path d="M21.8 35.19L.67 22.69v-2.38L21.08 8.42 43 20.29v2.4zM2.73 21.51l19.07 11.3L41 21.51 21.12 10.78z"/><path d="M21.8 21.1l9.5 5.9-1.6.9-7.9-4.8v2.2L28 29l-1.5.9-4.7-2.8V29l2.9 1.9-2.9 1.9v4.3L8.7 29.5v1.9l13.1 7.7v2.1L8.7 33.3v2.2l13.1 7.6 12.9-7.8v-8.4L21.8 19v2.1"/></symbol><symbol viewBox="0 0 16 16" id="icon_plus"><path d="M7 0h2v16H7z"/><path d="M0 7h16v2H0z"/></symbol><symbol viewBox="0 0 16 16" id="icon_search" xmlns="http://www.w3.org/2000/svg"><path d="M15.7 14.3l-3.105-3.105A6.966 6.966 0 0 0 14 7a7 7 0 1 0-7 7 6.96 6.96 0 0 0 4.194-1.405L14.3 15.7c.184.184.38.3.7.3a1 1 0 0 0 1-1 .925.925 0 0 0-.3-.7zM2 7c0-2.762 2.238-5 5-5s5 2.238 5 5-2.238 5-5 5-5-2.238-5-5z"/></symbol><symbol viewBox="0 0 24 24" id="icon_social-facebook"><path d="M17 2v4h-2c-.69 0-1 .81-1 1.5V10h3v4h-3v8h-4v-8H7v-4h3V6a4 4 0 0 1 4-4h3z"/></symbol><symbol viewBox="0 0 24 24" id="icon_social-instagram"><path d="M7.8 2h8.4C19.4 2 22 4.6 22 7.8v8.4a5.8 5.8 0 0 1-5.8 5.8H7.8C4.6 22 2 19.4 2 16.2V7.8A5.8 5.8 0 0 1 7.8 2m-.2 2A3.6 3.6 0 0 0 4 7.6v8.8C4 18.39 5.61 20 7.6 20h8.8a3.6 3.6 0 0 0 3.6-3.6V7.6C20 5.61 18.39 4 16.4 4H7.6m9.65 1.5a1.25 1.25 0 0 1 1.25 1.25A1.25 1.25 0 0 1 17.25 8 1.25 1.25 0 0 1 16 6.75a1.25 1.25 0 0 1 1.25-1.25M12 7a5 5 0 0 1 5 5 5 5 0 0 1-5 5 5 5 0 0 1-5-5 5 5 0 0 1 5-5m0 2a3 3 0 0 0-3 3 3 3 0 0 0 3 3 3 3 0 0 0 3-3 3 3 0 0 0-3-3z"/></symbol><symbol viewBox="0 0 24 24" id="icon_social-twitter"><path d="M22.46 6c-.77.35-1.6.58-2.46.69.88-.53 1.56-1.37 1.88-2.38-.83.5-1.75.85-2.72 1.05C18.37 4.5 17.26 4 16 4c-2.35 0-4.27 1.92-4.27 4.29 0 .34.04.67.11.98C8.28 9.09 5.11 7.38 3 4.79c-.37.63-.58 1.37-.58 2.15 0 1.49.75 2.81 1.91 3.56-.71 0-1.37-.2-1.95-.5v.03c0 2.08 1.48 3.82 3.44 4.21a4.22 4.22 0 0 1-1.93.07 4.28 4.28 0 0 0 4 2.98 8.521 8.521 0 0 1-5.33 1.84c-.34 0-.68-.02-1.02-.06C3.44 20.29 5.7 21 8.12 21 16 21 20.33 14.46 20.33 8.79c0-.19 0-.37-.01-.56.84-.6 1.56-1.36 2.14-2.23z"/></symbol><symbol viewBox="0 0 32 32" id="icon_user" xmlns="http://www.w3.org/2000/svg"><path d="M10 8a6 6 0 0 1 12 0v4a6 6 0 0 1-12 0zM2 26c1-3 8-6 12-6h4c4 0 11 3 12 6v2H2z"/></symbol></svg>